<?xml version="1.0" encoding="UTF-8" standalone="no"?>
<svg
   viewBox="0 0 150 150"
   version="1.1"
   id="svg4"
   sodipodi:docname="logo.svg"
   width="150"
   height="150"
   inkscape:version="1.4.2 (ebf0e940d0, 2025-05-08)"
   xmlns:inkscape="http://www.inkscape.org/namespaces/inkscape"
   xmlns:sodipodi="http://sodipodi.sourceforge.net/DTD/sodipodi-0.dtd"
   xmlns="http://www.w3.org/2000/svg"
   xmlns:svg="http://www.w3.org/2000/svg">
  <defs
     id="defs4" />
  <sodipodi:namedview
     id="namedview4"
     pagecolor="#ffffff"
     bordercolor="#000000"
     borderopacity="0.25"
     inkscape:showpageshadow="2"
     inkscape:pageopacity="0.0"
     inkscape:pagecheckerboard="0"
     inkscape:deskcolor="#d1d1d1"
     inkscape:zoom="3.0486807"
     inkscape:cx="100.37129"
     inkscape:cy="80.198625"
     inkscape:window-width="1908"
     inkscape:window-height="1159"
     inkscape:window-x="0"
     inkscape:window-y="0"
     inkscape:window-maximized="1"
     inkscape:current-layer="svg4" />
  <path
     d="M 0,0 H 150 V 150 H 0 Z"
     fill="#ffffff"
     id="path1"
     style="stroke-width:0.330168" />
  <path
     d="m 22,6 h 106 c 7.77,0 14.245,5.537 15.696,12.881 -4.731,9.418 -10.958,17.973 -18.4,25.415 C 112.194,57.398 95.642,66.734 77,70.772 V 25 H 73 V 71.551 A 99.655,99.655 0 0 1 56,73 v 4 c 5.813,0 11.491,0.496 17,1.449 V 125 h 4 V 79.228 c 18.642,4.038 35.194,13.374 48.296,26.476 7.442,7.442 13.669,15.997 18.4,25.415 C 142.245,138.463 135.77,144 128,144 H 22 C 13.163,144 6,136.837 6,128 V 22 C 6,13.163 13.163,6 22,6 Z"
     fill="#ffa600"
     id="path2" />
  <path
     d="M 128.125,47.125 A 101.955,101.955 0 0 0 144,26.541 v 96.918 A 101.955,101.955 0 0 0 128.125,102.875 C 114.476,89.227 96.73,79.353 77,75.19 v -0.38 c 19.73,-4.163 37.476,-14.037 51.125,-27.685 z"
     fill="#9a9a9a"
     id="path3" />
</svg>
